<?xml version="1.0" encoding="utf-8"?>
<!-- Generator: Adobe Illustrator 22.0.1, SVG Export Plug-In . SVG Version: 6.00 Build 0)  -->
<svg version="1.1" id="Calque_1" xmlns="http://www.w3.org/2000/svg" xmlns:xlink="http://www.w3.org/1999/xlink" x="0px" y="0px"
	 viewBox="0 0 275.8 137.7" style="enable-background:new 0 0 275.8 137.7;" xml:space="preserve">
<style type="text/css">
	.st0{fill:#F0C988;}
	.st1{fill:#6F7097;}
	.st2{fill:#1B1B22;}
	.st3{fill:#2C2436;}
	.st4{fill:#5C3A51;}
	.st5{fill:#92696E;}
	.st6{fill:#C7B48E;}
	.st7{fill:#212F4E;}
	.st8{fill:#FFFFFF;}
	.st9{fill:#FDC20C;}
	.st10{fill:#CB960D;}
	.st11{opacity:0.19;fill:url(#SVGID_1_);enable-background:new    ;}
	.st12{opacity:0.19;fill:url(#SVGID_2_);enable-background:new    ;}
	.st13{opacity:0.26;fill:url(#SVGID_3_);enable-background:new    ;}
</style>
<rect x="55.2" y="-125.5" class="st0" width="41.4" height="88.3"/>
<rect x="301.5" y="150.9" class="st1" width="48.8" height="37.1"/>
<rect x="302.5" y="105.5" class="st2" width="48.8" height="37.1"/>
<rect x="364.8" y="105.5" class="st3" width="48.8" height="37.1"/>
<rect x="424.3" y="105.5" class="st4" width="48.8" height="37.1"/>
<rect x="495.6" y="105.5" class="st5" width="48.8" height="37.1"/>
<rect x="421.2" y="-83.2" class="st6" width="48.8" height="37.1"/>
<rect x="-106" y="80.7" class="st1" width="48.8" height="27.9"/>
<ellipse class="st7" cx="209.3" cy="103.5" rx="16.7" ry="16.7"/>
<ellipse class="st8" cx="209.3" cy="102.4" rx="11.7" ry="11.7"/>
<g>
	<ellipse class="st7" cx="53.2" cy="103.5" rx="16.7" ry="16.7"/>
	<ellipse class="st8" cx="53.2" cy="102.4" rx="11.7" ry="11.7"/>
</g>
<g>
	<path class="st9" d="M186.5,32.5v77.3c0,0,5.7-19.7,23.2-19.2c17.4,0.5,18.9,17.9,18.9,17.9s16.7-3.2,18.2-5
		c1.5-1.7-24.4-71-24.4-71S186.5,32.5,186.5,32.5z M189.3,41.7c0-5.2,4.7-5.2,4.7-5.2s16.2,0,20.9,0s5.5,2.2,5.5,2.2s4.2,8,4.5,14.5
		c0.2,6.5-3.2,5.7-3.2,5.7L193.8,61c-3.5-0.5-4.5-5.3-4.5-5.3S189.3,46.9,189.3,41.7z"/>
</g>
<polygon class="st9" points="232,58.6 252.3,61.6 257.8,102.3 246.8,103.5 "/>
<path class="st10" d="M221.4,32.5c0,0-5.1-14.3-36.6-14c-1.1-1.1-1.1-1.1-1.1-1.1c-29.1,1.4-140,2.1-159.1,2c-7.7,0.6-6.5,7-6.4,10
	l168.4-1.7v4.7h34.8V32.5z"/>
<linearGradient id="SVGID_1_" gradientUnits="userSpaceOnUse" x1="-638.404" y1="68.85" x2="-637.034" y2="68.85" gradientTransform="matrix(-1 0 0 -1 -450.6393 140)">
	<stop  offset="0" style="stop-color:#6E7198"/>
	<stop  offset="1" style="stop-color:#000000"/>
</linearGradient>
<polygon class="st11" points="187.6,107 186.4,109.8 186.4,32.5 187.8,32.5 "/>
<linearGradient id="SVGID_2_" gradientUnits="userSpaceOnUse" x1="-697.9069" y1="58.95" x2="-682.6543" y2="58.95" gradientTransform="matrix(-1 0 0 -1 -450.6393 140)">
	<stop  offset="0" style="stop-color:#6E7198"/>
	<stop  offset="1" style="stop-color:#000000"/>
</linearGradient>
<polygon class="st12" points="232,58.6 246.8,103.5 247.3,103.5 232.6,58.7 "/>
<path class="st8" d="M250.1,64.3c0,0,6.1,4.4,0,9.7C244,72.6,250.1,64.3,250.1,64.3z"/>
<path class="st10" d="M250.1,74c0,0-0.1-8.6,0-9.7c-3.3,0-9,1-9.3,4.8C240.4,73,250.1,74,250.1,74z"/>
<linearGradient id="SVGID_3_" gradientUnits="userSpaceOnUse" x1="-703.4778" y1="70.95" x2="-701.6357" y2="70.95" gradientTransform="matrix(-1 0 0 -1 -450.6393 140)">
	<stop  offset="0" style="stop-color:#FFFFFF"/>
	<stop  offset="1" style="stop-color:#BDBCBC"/>
</linearGradient>
<path class="st13" d="M252,71.7c-1.4,0-1.3-5.3,0-5.3C252.5,66.6,253.6,69.3,252,71.7z"/>
<path class="st10" d="M246.7,73.4c0,0-6.1-1.2-3.6,5.6l3,0.7c0,0-1.2-3-0.7-4.1c0.6-1.1,1.9-2,2.7-1.8"/>
<path class="st9" d="M18.2,27.8l1.3,82H26c0,0,1.2-2.2,3.7-6.9s6.9-4.3,6.9-4.3s22.4-0.4,28.4,0c6,0.4,5.4,3,7.5,6.4
	c2.1,3.4,5.1,4.8,5.1,4.8h108.8v-82H18.2z M175.9,58.8c0,3.5-2.9,6.5-6.5,6.5h-135c-3.6,0-6.5-2.9-6.5-6.5v-15
	c0-3.6,2.9-6.5,6.5-6.5h135c3.6,0,6.5,2.9,6.5,6.5V58.8z"/>
<path class="st10" d="M82.4,109.7V89.1H24v20.7h2l5-8.8c0,0,2.4-2.5,5.6-2.4s28.4,0,28.4,0s3.4-0.3,7.5,4.9c0.5,2.4,0.2,4.3,5.4,6.2
	H82.4z"/>
<g>
	<path d="M206.1,82.7c-0.8-0.3-1.4-0.7-1.9-1.3c-0.4-0.5-0.7-1.2-0.8-1.8c0-0.1,0-0.2,0.1-0.3c0.1-0.1,0.2-0.1,0.3-0.1l2.5-0.2
		c0.3,0,0.5,0.1,0.6,0.3c0.2,0.4,0.4,0.7,0.7,0.8c0.3,0.2,0.7,0.2,1.1,0.2c0.5,0,0.9-0.2,1.2-0.6c0.3-0.3,0.5-0.8,0.4-1.3
		c0-0.5-0.2-0.9-0.6-1.2c-0.4-0.3-0.8-0.4-1.3-0.4c-0.3,0-0.5,0.1-0.7,0.2s-0.3,0.2-0.5,0.4c-0.2,0.2-0.3,0.2-0.5,0.2l-2.5,0.2
		c-0.1,0-0.2,0-0.3-0.1s-0.1-0.2-0.1-0.3l0.2-6.3c0-0.2,0.1-0.3,0.2-0.4c0.1-0.1,0.2-0.2,0.4-0.2l7.3-0.5c0.1,0,0.2,0,0.3,0.1
		s0.1,0.2,0.1,0.3l0.1,1.8c0,0.1,0,0.2-0.1,0.3c-0.1,0.1-0.2,0.1-0.3,0.2l-5.2,0.4l-0.1,2.2c0.3-0.2,0.6-0.4,0.9-0.5
		c0.4-0.1,0.8-0.2,1.4-0.3c0.8-0.1,1.5,0.1,2.2,0.4s1.3,0.7,1.7,1.3c0.4,0.6,0.7,1.3,0.8,2.1c0.1,0.8-0.1,1.6-0.5,2.3
		c-0.4,0.7-0.9,1.3-1.7,1.7c-0.8,0.4-1.7,0.7-2.8,0.8C207.8,83.1,206.9,83,206.1,82.7z"/>
	<path d="M219.3,81.9c-0.1-0.1-0.1-0.2-0.2-0.3l-0.6-8.4l-2.3,2c-0.1,0.1-0.2,0.1-0.3,0.1s-0.3-0.1-0.4-0.2l-1.2-1.4
		c-0.1-0.1-0.1-0.2-0.1-0.3c0-0.2,0-0.3,0.2-0.4l3.9-3.5c0.1-0.1,0.2-0.1,0.4-0.2l2.4-0.2c0.1,0,0.2,0,0.3,0.1s0.1,0.2,0.2,0.3
		l0.9,11.7c0,0.1,0,0.2-0.1,0.3c-0.1,0.1-0.2,0.1-0.3,0.2l-2.5,0.2C219.6,82,219.4,82,219.3,81.9z"/>
</g>
</svg>
